<mxfile host="app.diagrams.net" agent="Mozilla/5.0 (Windows NT 10.0; Win64; x64) AppleWebKit/537.36 (KHTML, like Gecko) Chrome/132.0.0.0 Safari/537.36" version="26.0.11">
  <diagram name="Page-1" id="01vbog0cd16l79029MgV">
    <mxGraphModel dx="1434" dy="780" grid="1" gridSize="10" guides="1" tooltips="1" connect="1" arrows="1" fold="1" page="1" pageScale="1" pageWidth="1169" pageHeight="827" math="0" shadow="0">
      <root>
        <mxCell id="0" />
        <mxCell id="1" parent="0" />
        <mxCell id="gLyy-V3eMxuYlXdmKleB-83" value="" style="rounded=0;whiteSpace=wrap;html=1;" vertex="1" parent="1">
          <mxGeometry x="20" y="130" width="980" height="490" as="geometry" />
        </mxCell>
        <mxCell id="gLyy-V3eMxuYlXdmKleB-1" value="eu-west-1" style="sketch=0;outlineConnect=0;gradientColor=none;html=1;whiteSpace=wrap;fontSize=12;fontStyle=0;shape=mxgraph.aws4.group;grIcon=mxgraph.aws4.group_region;strokeColor=#879196;fillColor=none;verticalAlign=top;align=left;spacingLeft=30;fontColor=#879196;dashed=1;" vertex="1" parent="1">
          <mxGeometry x="111.5" y="190" width="837.5" height="400" as="geometry" />
        </mxCell>
        <mxCell id="gLyy-V3eMxuYlXdmKleB-37" value="" style="rounded=0;whiteSpace=wrap;html=1;fillColor=none;dashed=1;" vertex="1" parent="1">
          <mxGeometry x="130" y="221" width="528.5" height="119" as="geometry" />
        </mxCell>
        <mxCell id="gLyy-V3eMxuYlXdmKleB-39" value="" style="rounded=1;whiteSpace=wrap;html=1;strokeColor=light-dark(#60a88d, #46a6ff);fillColor=none;arcSize=32;absoluteArcSize=1;strokeWidth=1.5;" vertex="1" parent="1">
          <mxGeometry x="570" y="373" width="290" height="187" as="geometry" />
        </mxCell>
        <mxCell id="gLyy-V3eMxuYlXdmKleB-2" value="" style="rounded=1;whiteSpace=wrap;html=1;" vertex="1" parent="1">
          <mxGeometry x="214" y="401" width="255" height="120" as="geometry" />
        </mxCell>
        <mxCell id="gLyy-V3eMxuYlXdmKleB-3" value="" style="sketch=0;points=[[0,0,0],[0.25,0,0],[0.5,0,0],[0.75,0,0],[1,0,0],[0,1,0],[0.25,1,0],[0.5,1,0],[0.75,1,0],[1,1,0],[0,0.25,0],[0,0.5,0],[0,0.75,0],[1,0.25,0],[1,0.5,0],[1,0.75,0]];outlineConnect=0;fontColor=#232F3E;fillColor=#E7157B;strokeColor=#ffffff;dashed=0;verticalLabelPosition=bottom;verticalAlign=top;align=center;html=1;fontSize=12;fontStyle=0;aspect=fixed;shape=mxgraph.aws4.resourceIcon;resIcon=mxgraph.aws4.api_gateway;" vertex="1" parent="1">
          <mxGeometry x="259" y="430" width="55" height="55" as="geometry" />
        </mxCell>
        <mxCell id="gLyy-V3eMxuYlXdmKleB-4" value="" style="sketch=0;points=[[0,0,0],[0.25,0,0],[0.5,0,0],[0.75,0,0],[1,0,0],[0,1,0],[0.25,1,0],[0.5,1,0],[0.75,1,0],[1,1,0],[0,0.25,0],[0,0.5,0],[0,0.75,0],[1,0.25,0],[1,0.5,0],[1,0.75,0]];outlineConnect=0;fontColor=#232F3E;fillColor=#ED7100;strokeColor=#ffffff;dashed=0;verticalLabelPosition=bottom;verticalAlign=top;align=center;html=1;fontSize=12;fontStyle=0;aspect=fixed;shape=mxgraph.aws4.resourceIcon;resIcon=mxgraph.aws4.lambda;" vertex="1" parent="1">
          <mxGeometry x="367" y="430" width="55" height="55" as="geometry" />
        </mxCell>
        <mxCell id="gLyy-V3eMxuYlXdmKleB-5" value="&lt;font style=&quot;font-size: 10px;&quot;&gt;API Gateway&lt;/font&gt;" style="text;html=1;align=center;verticalAlign=middle;whiteSpace=wrap;rounded=0;" vertex="1" parent="1">
          <mxGeometry x="246.5" y="480" width="80" height="30" as="geometry" />
        </mxCell>
        <mxCell id="gLyy-V3eMxuYlXdmKleB-6" value="&lt;font style=&quot;font-size: 10px;&quot;&gt;AWS Lambda&lt;/font&gt;" style="text;html=1;align=center;verticalAlign=middle;whiteSpace=wrap;rounded=0;" vertex="1" parent="1">
          <mxGeometry x="356" y="480" width="81" height="30" as="geometry" />
        </mxCell>
        <mxCell id="gLyy-V3eMxuYlXdmKleB-7" value="&lt;font style=&quot;font-size: 10px;&quot;&gt;Backend API&lt;/font&gt;" style="text;html=1;align=center;verticalAlign=middle;whiteSpace=wrap;rounded=0;" vertex="1" parent="1">
          <mxGeometry x="379.75" y="395" width="80" height="30" as="geometry" />
        </mxCell>
        <mxCell id="gLyy-V3eMxuYlXdmKleB-8" value="" style="sketch=0;points=[[0,0,0],[0.25,0,0],[0.5,0,0],[0.75,0,0],[1,0,0],[0,1,0],[0.25,1,0],[0.5,1,0],[0.75,1,0],[1,1,0],[0,0.25,0],[0,0.5,0],[0,0.75,0],[1,0.25,0],[1,0.5,0],[1,0.75,0]];outlineConnect=0;fontColor=#232F3E;fillColor=#01A88D;strokeColor=#ffffff;dashed=0;verticalLabelPosition=bottom;verticalAlign=top;align=center;html=1;fontSize=12;fontStyle=0;aspect=fixed;shape=mxgraph.aws4.resourceIcon;resIcon=mxgraph.aws4.bedrock;" vertex="1" parent="1">
          <mxGeometry x="870" y="495" width="55" height="55" as="geometry" />
        </mxCell>
        <mxCell id="gLyy-V3eMxuYlXdmKleB-9" value="&lt;font style=&quot;font-size: 10px;&quot;&gt;AWS Bedrock&lt;/font&gt;" style="text;html=1;align=center;verticalAlign=middle;whiteSpace=wrap;rounded=0;" vertex="1" parent="1">
          <mxGeometry x="467.75" y="291" width="78.5" height="30" as="geometry" />
        </mxCell>
        <mxCell id="gLyy-V3eMxuYlXdmKleB-11" value="&lt;font style=&quot;font-size: 10px;&quot;&gt;S3 Knowledge&amp;nbsp;&lt;/font&gt;&lt;div&gt;&lt;font style=&quot;font-size: 10px;&quot;&gt;Base&lt;/font&gt;&lt;/div&gt;" style="text;html=1;align=center;verticalAlign=middle;whiteSpace=wrap;rounded=0;" vertex="1" parent="1">
          <mxGeometry x="205.5" y="296" width="116" height="30" as="geometry" />
        </mxCell>
        <mxCell id="gLyy-V3eMxuYlXdmKleB-12" value="" style="sketch=0;points=[[0,0,0],[0.25,0,0],[0.5,0,0],[0.75,0,0],[1,0,0],[0,1,0],[0.25,1,0],[0.5,1,0],[0.75,1,0],[1,1,0],[0,0.25,0],[0,0.5,0],[0,0.75,0],[1,0.25,0],[1,0.5,0],[1,0.75,0]];outlineConnect=0;fontColor=#232F3E;fillColor=#7AA116;strokeColor=#ffffff;dashed=0;verticalLabelPosition=bottom;verticalAlign=top;align=center;html=1;fontSize=12;fontStyle=0;aspect=fixed;shape=mxgraph.aws4.resourceIcon;resIcon=mxgraph.aws4.s3;" vertex="1" parent="1">
          <mxGeometry x="234" y="241" width="55" height="55" as="geometry" />
        </mxCell>
        <mxCell id="gLyy-V3eMxuYlXdmKleB-13" value="" style="sketch=0;points=[[0,0,0],[0.25,0,0],[0.5,0,0],[0.75,0,0],[1,0,0],[0,1,0],[0.25,1,0],[0.5,1,0],[0.75,1,0],[1,1,0],[0,0.25,0],[0,0.5,0],[0,0.75,0],[1,0.25,0],[1,0.5,0],[1,0.75,0]];outlineConnect=0;fontColor=#232F3E;fillColor=#ED7100;strokeColor=#ffffff;dashed=0;verticalLabelPosition=bottom;verticalAlign=top;align=center;html=1;fontSize=12;fontStyle=0;aspect=fixed;shape=mxgraph.aws4.resourceIcon;resIcon=mxgraph.aws4.lambda;" vertex="1" parent="1">
          <mxGeometry x="360" y="241" width="55" height="55" as="geometry" />
        </mxCell>
        <mxCell id="gLyy-V3eMxuYlXdmKleB-14" value="&lt;font style=&quot;font-size: 10px;&quot;&gt;AWS Lambda&lt;/font&gt;" style="text;html=1;align=center;verticalAlign=middle;whiteSpace=wrap;rounded=0;" vertex="1" parent="1">
          <mxGeometry x="347" y="291" width="81" height="30" as="geometry" />
        </mxCell>
        <mxCell id="gLyy-V3eMxuYlXdmKleB-15" value="" style="sketch=0;points=[[0,0,0],[0.25,0,0],[0.5,0,0],[0.75,0,0],[1,0,0],[0,1,0],[0.25,1,0],[0.5,1,0],[0.75,1,0],[1,1,0],[0,0.25,0],[0,0.5,0],[0,0.75,0],[1,0.25,0],[1,0.5,0],[1,0.75,0]];outlineConnect=0;fontColor=#232F3E;fillColor=#01A88D;strokeColor=#ffffff;dashed=0;verticalLabelPosition=bottom;verticalAlign=top;align=center;html=1;fontSize=12;fontStyle=0;aspect=fixed;shape=mxgraph.aws4.resourceIcon;resIcon=mxgraph.aws4.bedrock;" vertex="1" parent="1">
          <mxGeometry x="478.5" y="241" width="55" height="55" as="geometry" />
        </mxCell>
        <mxCell id="gLyy-V3eMxuYlXdmKleB-16" value="" style="shape=image;verticalLabelPosition=bottom;labelBackgroundColor=default;verticalAlign=top;aspect=fixed;imageAspect=0;image=data:image/png,iVBORw0KGgoAAAANSUhEUgAAALIAAACyCAMAAADRVGVaAAAASFBMVEX///8gHR7x8fHHx8ctKyxXVVaPjo5zcnLj4+NJR0irqqvV1dU7OTqBgIBlY2S5ubmdnJ0mJCU2NDR6eXlZV1hCQEGIh4deXF0qec8KAAAHPklEQVR4nO1c17akKhBtQQSzZ+aG///TayAUUewRca3LfjrBbrdYtStQ+vkUFBQUFBQUFBQUFBQUFBQUFBQUFBRcBaNVRVluFheAflcbapSbSDS6ujow5GYSCUwqCZqbTAwQrSCW3HzO0dSVDpyb0QnwUJmo+9ykQmDEIryifa9soMZFeMWUm5kPnWnECmNubm6MGskfnXOXm50TPWBIsLnO73RBKccD/gjKcunfGbnRYct1s/7MHbH+TO+WjZ0n3alxpuSDWsH5nZF7WI34+KmVSsGkjrwkciO8oWua/TcshQEIhXLLbMkzWqZ2IMSIc/oxgua+5h236zkH2w3KOAOUO+2vu5QM+WRudDI2KHPBEPn9ekdIRsFwL7JBmVuNyC3QkFUu3IwN1+Iq0Yjfs2py76Gs5fGI/zGbw2noXHxrQjTnEuHaULWBZnFBmBK3qyQ7DxJpqP7X7ULaDCmdJsd+p0K4oS3R/3akTfX4dETRS7vm/AMSTH6KPGrjqNJx4T5Dkxqa5zTESt3jK36j9KZP9QoWcUIpFrEiYKvjsDyy1Dxct8oNo8sN1Fgtjpo+QJoIqVDZ0YVyY55M0m1Crhz8TI0sm6qt9IgHG43OQXLxEEK1uU4vT34t5+m0xOqKTH4FLRJL9bjYdOt+AcrJqytZOB/n9jFG2B/hsJ69Jpc6WTgf2K+gNRmjTVY8Kb3VZ0wuGapwPkAdgtH9eIWEUYPwA/sSlgESU1nVnsNf5oeR1Sy/pjbfYaEkaIDanoMhBs7GaHLB2MFm73kWnRXMmZge+lrHIRlg7TloUgL/OXRCIFOXKUFBYlYwXqkBQ1c54NZnFOlVYsZjyPIcrlXpKYTwyxF9QHqVFDRgerO9D3UAxPJjmfmuttHoSAJ0nMSZxbj3oQ6AgEwr2Ri1Gh0pGHMXd6YTmk2Y3SR1kWyQP8P0KhFU1lY7sodFERxmnobI7R3nRXoaHUkYuxN6sbL1WoXyYELUzonjE6J0TcYYdIjc2Q5ftIl9QBoiLcQRlKn3P7cz9iXzmyYPh2HyI5cPGvyfMtOrmwHSBu8pWF1zaQD9e2VOljbK60oBmOgEEoJZGMzMj0XgZ9sA1jxlahMJBthmiNvr0Pr3S9iccIr8nqkyLbLAI9q60pObcz+AuA2R1Tv3ORHW2qp+duhFD8SENoEylMMwezQFPoESGEZloybjErDBK3lwl2LTx0HZrQCKBj/i/Lv3guD+gO3L0PyrE5sH86r2/uTT6iZXunPZWEgdQ0V21u/3Tc8yhysq3NBTXRN7tPdnGXJ/Qx8V+nMTlH3T+zufYjVahJdRrvkNXyzSz/vbRXI1jlu93XRyy900vvhOyNUAWnyLNAk5vH9OSma9t1eWyb443WrMyZZZFkS3lBBkamZhV8Kb7w/bMp5EmDCjhIT8iYvmlqdc++KLEKtxGl15BRNYNRhOh+nv2C++DBlPTqLrfO5Qnmnh+8O2KP+Cegy7XF4Kju7ovuC3U0bnHTSkDXZ5iy7PLFWCsH0Mcwa8xNxU8G0SexgnsOY1npBAnYHthM9jQ91InH3oBG0jzwzRDmTtjO33xH/8NsMTfXQKLJ4J/JN0p+/+AR98crLL8RiJwIly9Wqlf57sG3hEa0e4VwNaJGk6HR1pmmaxuxgwNBBz6i80W9KddKz/HFx1LWFWcyR1J/nLO+6XLnB1U6KNd65ituKLc29DZKLPra7Dl/wBjUmmFcTrUft/yG4xss8daCxvgKqYboLEoiytulcdRsVC3XeHC8Ix84RN0UGnjCbFpRGDhXD+XrplbX+XctmkT9Xxc/DfcO1qYcH+vbBWl37JVU47nQ8p86TNUg+tf3/wsmZ4IOfEj/MAyr2Id+YC6nNH2xMwPv3a3TPxICJWC6gs0dyCNPr3faC+XTmnToSwWEAGUzBjmU0RCBWhXfL9E0EZZm2m82D3heQCFwOYZo7WrJmuKh6wp0atrcLYIV78GEf/fgY7hlPVNo8kxyZlpxQcO6ZWKrSGHdDDOmzqgRc66JTrkO+YF3PUAOJCtHCTFFomT64skegV8KtMPdSg8P30rqDMh2WGb77jK8Civx2vuI9MKPaFFZnTAw5o9Clq2kUbo3zQATw3/MRrPhydCrJEmrR03T75sAsEc/YqItMEYRrts8/UMfrLphyZJ8jrHcUgfFquCv1idqVixU6O0T0xNWkAdROwkPgRU6NB8/TMMh5Fig+dCNP1Wgbfk3xId4UMT5CzZeIKICADhmcBZ8j4gWeMXEAzBeIKOvhQDKr9oVYyNk3zL6D8zPh9GHCbCe472hpTGXcnG7RAo0zD8/jzYxIXguZcSsE8IzOveLuOxkjllR7Kr3hRjYfy7Kb8ivenaHsPKvFw76S+4/Up2i6lnvL0GM+rxlH5BpAnHlaNAIuN4izJKO1XUO3kd7/UDGLm6+zudL4Ta45HCH3H6zAKCgoKCgoKCgoKCgoKCgoKCgoK/r/4Dwr2Kwo0t/bjAAAAAElFTkSuQmCC;" vertex="1" parent="1">
          <mxGeometry x="591.75" y="241" width="55" height="55" as="geometry" />
        </mxCell>
        <mxCell id="gLyy-V3eMxuYlXdmKleB-17" value="&lt;font style=&quot;font-size: 10px;&quot;&gt;Pinecone&amp;nbsp;&lt;/font&gt;&lt;div&gt;&lt;font style=&quot;font-size: 10px;&quot;&gt;Vector DB&lt;/font&gt;&lt;/div&gt;" style="text;html=1;align=center;verticalAlign=middle;whiteSpace=wrap;rounded=0;" vertex="1" parent="1">
          <mxGeometry x="580.75" y="296" width="78.5" height="30" as="geometry" />
        </mxCell>
        <mxCell id="gLyy-V3eMxuYlXdmKleB-18" value="" style="endArrow=classic;html=1;rounded=0;exitX=1;exitY=0.5;exitDx=0;exitDy=0;exitPerimeter=0;entryX=0;entryY=0.5;entryDx=0;entryDy=0;entryPerimeter=0;" edge="1" parent="1" source="gLyy-V3eMxuYlXdmKleB-12" target="gLyy-V3eMxuYlXdmKleB-13">
          <mxGeometry width="50" height="50" relative="1" as="geometry">
            <mxPoint x="668" y="430" as="sourcePoint" />
            <mxPoint x="718" y="380" as="targetPoint" />
          </mxGeometry>
        </mxCell>
        <mxCell id="gLyy-V3eMxuYlXdmKleB-21" value="" style="endArrow=classic;html=1;rounded=0;exitX=1;exitY=0.5;exitDx=0;exitDy=0;exitPerimeter=0;entryX=0;entryY=0.5;entryDx=0;entryDy=0;entryPerimeter=0;" edge="1" parent="1" source="gLyy-V3eMxuYlXdmKleB-13" target="gLyy-V3eMxuYlXdmKleB-15">
          <mxGeometry width="50" height="50" relative="1" as="geometry">
            <mxPoint x="668" y="430" as="sourcePoint" />
            <mxPoint x="718" y="380" as="targetPoint" />
          </mxGeometry>
        </mxCell>
        <mxCell id="gLyy-V3eMxuYlXdmKleB-22" value="&lt;font style=&quot;font-size: 8px;&quot;&gt;Generate&lt;/font&gt;&lt;div&gt;&lt;font style=&quot;font-size: 8px;&quot;&gt;Embeddings&lt;/font&gt;&lt;/div&gt;" style="text;html=1;align=center;verticalAlign=middle;whiteSpace=wrap;rounded=0;" vertex="1" parent="1">
          <mxGeometry x="413" y="252" width="60" height="30" as="geometry" />
        </mxCell>
        <mxCell id="gLyy-V3eMxuYlXdmKleB-23" value="&lt;font style=&quot;font-size: 8px;&quot;&gt;Store&lt;/font&gt;&lt;div&gt;&lt;font style=&quot;font-size: 8px;&quot;&gt;Embeddings&lt;/font&gt;&lt;/div&gt;" style="text;html=1;align=center;verticalAlign=middle;whiteSpace=wrap;rounded=0;" vertex="1" parent="1">
          <mxGeometry x="529.5" y="252" width="60" height="30" as="geometry" />
        </mxCell>
        <mxCell id="gLyy-V3eMxuYlXdmKleB-24" value="" style="endArrow=classic;html=1;rounded=0;exitX=1;exitY=0.5;exitDx=0;exitDy=0;exitPerimeter=0;entryX=0;entryY=0.5;entryDx=0;entryDy=0;" edge="1" parent="1" source="gLyy-V3eMxuYlXdmKleB-15" target="gLyy-V3eMxuYlXdmKleB-16">
          <mxGeometry width="50" height="50" relative="1" as="geometry">
            <mxPoint x="668" y="430" as="sourcePoint" />
            <mxPoint x="718" y="380" as="targetPoint" />
          </mxGeometry>
        </mxCell>
        <mxCell id="gLyy-V3eMxuYlXdmKleB-29" value="" style="endArrow=classic;html=1;rounded=0;exitX=1;exitY=0.5;exitDx=0;exitDy=0;exitPerimeter=0;entryX=0;entryY=0.5;entryDx=0;entryDy=0;entryPerimeter=0;" edge="1" parent="1">
          <mxGeometry width="50" height="50" relative="1" as="geometry">
            <mxPoint x="314" y="443.5" as="sourcePoint" />
            <mxPoint x="367" y="443.5" as="targetPoint" />
          </mxGeometry>
        </mxCell>
        <mxCell id="gLyy-V3eMxuYlXdmKleB-32" value="" style="verticalLabelPosition=bottom;html=1;verticalAlign=top;align=center;strokeColor=none;fillColor=#00BEF2;shape=mxgraph.azure.user;" vertex="1" parent="1">
          <mxGeometry x="50" y="432.5" width="47.5" height="50" as="geometry" />
        </mxCell>
        <mxCell id="gLyy-V3eMxuYlXdmKleB-33" value="" style="endArrow=classic;html=1;rounded=0;entryX=0;entryY=0.5;entryDx=0;entryDy=0;entryPerimeter=0;" edge="1" parent="1">
          <mxGeometry width="50" height="50" relative="1" as="geometry">
            <mxPoint x="100" y="444" as="sourcePoint" />
            <mxPoint x="259" y="445.5" as="targetPoint" />
          </mxGeometry>
        </mxCell>
        <mxCell id="gLyy-V3eMxuYlXdmKleB-34" value="&lt;font style=&quot;font-size: 10px;&quot;&gt;User&lt;/font&gt;" style="text;html=1;align=center;verticalAlign=middle;whiteSpace=wrap;rounded=0;" vertex="1" parent="1">
          <mxGeometry x="45.75" y="480.5" width="60" height="30" as="geometry" />
        </mxCell>
        <mxCell id="gLyy-V3eMxuYlXdmKleB-35" value="&lt;font style=&quot;font-size: 10px;&quot;&gt;AWS Bedrock&lt;/font&gt;" style="text;html=1;align=center;verticalAlign=middle;whiteSpace=wrap;rounded=0;" vertex="1" parent="1">
          <mxGeometry x="858.25" y="544" width="78.5" height="30" as="geometry" />
        </mxCell>
        <mxCell id="gLyy-V3eMxuYlXdmKleB-38" value="&lt;b&gt;RAG&lt;/b&gt;" style="text;html=1;align=center;verticalAlign=middle;whiteSpace=wrap;rounded=0;" vertex="1" parent="1">
          <mxGeometry x="710" y="296" width="60" height="30" as="geometry" />
        </mxCell>
        <mxCell id="gLyy-V3eMxuYlXdmKleB-45" value="" style="sketch=0;aspect=fixed;pointerEvents=1;shadow=0;dashed=0;html=1;strokeColor=none;labelPosition=center;verticalLabelPosition=bottom;verticalAlign=top;align=center;fillColor=#FF0000;shape=mxgraph.mscae.enterprise.document" vertex="1" parent="1">
          <mxGeometry x="138" y="244.5" width="40" height="50" as="geometry" />
        </mxCell>
        <mxCell id="gLyy-V3eMxuYlXdmKleB-50" value="" style="endArrow=classic;html=1;rounded=0;entryX=0;entryY=0.5;entryDx=0;entryDy=0;entryPerimeter=0;exitX=1;exitY=0.5;exitDx=0;exitDy=0;exitPerimeter=0;" edge="1" parent="1">
          <mxGeometry width="50" height="50" relative="1" as="geometry">
            <mxPoint x="179" y="268.5" as="sourcePoint" />
            <mxPoint x="235" y="268.5" as="targetPoint" />
          </mxGeometry>
        </mxCell>
        <mxCell id="gLyy-V3eMxuYlXdmKleB-51" value="&lt;span style=&quot;font-size: 8px;&quot;&gt;Upload&lt;/span&gt;" style="text;html=1;align=center;verticalAlign=middle;whiteSpace=wrap;rounded=0;" vertex="1" parent="1">
          <mxGeometry x="173" y="261" width="60" height="30" as="geometry" />
        </mxCell>
        <mxCell id="gLyy-V3eMxuYlXdmKleB-56" value="&lt;span style=&quot;font-size: 8px;&quot;&gt;Trigger&lt;/span&gt;" style="text;html=1;align=center;verticalAlign=middle;whiteSpace=wrap;rounded=0;" vertex="1" parent="1">
          <mxGeometry x="291" y="261" width="60" height="30" as="geometry" />
        </mxCell>
        <mxCell id="gLyy-V3eMxuYlXdmKleB-57" value="" style="endArrow=none;html=1;rounded=0;entryX=1.005;entryY=0.429;entryDx=0;entryDy=0;entryPerimeter=0;exitX=0.5;exitY=0;exitDx=0;exitDy=0;startArrow=classic;startFill=1;" edge="1" parent="1" source="gLyy-V3eMxuYlXdmKleB-39" target="gLyy-V3eMxuYlXdmKleB-37">
          <mxGeometry width="50" height="50" relative="1" as="geometry">
            <mxPoint x="540" y="410" as="sourcePoint" />
            <mxPoint x="590" y="360" as="targetPoint" />
            <Array as="points">
              <mxPoint x="715" y="272" />
            </Array>
          </mxGeometry>
        </mxCell>
        <mxCell id="gLyy-V3eMxuYlXdmKleB-58" value="Input GuardRails" style="rounded=1;whiteSpace=wrap;html=1;strokeColor=light-dark(#60a88d, #ededed);" vertex="1" parent="1">
          <mxGeometry x="587" y="380" width="255" height="40" as="geometry" />
        </mxCell>
        <mxCell id="gLyy-V3eMxuYlXdmKleB-60" value="OutPut GuardRails" style="rounded=1;whiteSpace=wrap;html=1;strokeColor=light-dark(#60a88d, #ededed);" vertex="1" parent="1">
          <mxGeometry x="588.75" y="510" width="255" height="40" as="geometry" />
        </mxCell>
        <mxCell id="gLyy-V3eMxuYlXdmKleB-61" value="&lt;b&gt;&lt;font style=&quot;font-size: 14px;&quot;&gt;AWS&lt;/font&gt;&lt;/b&gt;" style="text;html=1;align=center;verticalAlign=middle;whiteSpace=wrap;rounded=0;" vertex="1" parent="1">
          <mxGeometry x="890" y="191" width="60" height="30" as="geometry" />
        </mxCell>
        <mxCell id="gLyy-V3eMxuYlXdmKleB-63" value="Anthropic&lt;br&gt;Claude Sonnet 3.5&lt;div&gt;(max 200k tokens, 70B)&amp;nbsp;&lt;/div&gt;" style="rounded=1;whiteSpace=wrap;html=1;strokeColor=light-dark(#60a88d, #ededed);" vertex="1" parent="1">
          <mxGeometry x="586.75" y="436" width="255" height="62" as="geometry" />
        </mxCell>
        <mxCell id="gLyy-V3eMxuYlXdmKleB-64" value="" style="endArrow=classic;html=1;rounded=0;exitX=0.5;exitY=1;exitDx=0;exitDy=0;entryX=0.5;entryY=0;entryDx=0;entryDy=0;" edge="1" parent="1" source="gLyy-V3eMxuYlXdmKleB-58" target="gLyy-V3eMxuYlXdmKleB-63">
          <mxGeometry width="50" height="50" relative="1" as="geometry">
            <mxPoint x="540" y="400" as="sourcePoint" />
            <mxPoint x="590" y="350" as="targetPoint" />
          </mxGeometry>
        </mxCell>
        <mxCell id="gLyy-V3eMxuYlXdmKleB-65" value="" style="endArrow=classic;html=1;rounded=0;exitX=0.5;exitY=1;exitDx=0;exitDy=0;" edge="1" parent="1" source="gLyy-V3eMxuYlXdmKleB-63" target="gLyy-V3eMxuYlXdmKleB-60">
          <mxGeometry width="50" height="50" relative="1" as="geometry">
            <mxPoint x="540" y="400" as="sourcePoint" />
            <mxPoint x="590" y="350" as="targetPoint" />
          </mxGeometry>
        </mxCell>
        <mxCell id="gLyy-V3eMxuYlXdmKleB-67" value="" style="endArrow=none;html=1;rounded=0;entryX=0;entryY=0.5;entryDx=0;entryDy=0;" edge="1" parent="1" target="gLyy-V3eMxuYlXdmKleB-60">
          <mxGeometry width="50" height="50" relative="1" as="geometry">
            <mxPoint x="520" y="530" as="sourcePoint" />
            <mxPoint x="533.5" y="500" as="targetPoint" />
          </mxGeometry>
        </mxCell>
        <mxCell id="gLyy-V3eMxuYlXdmKleB-68" value="" style="endArrow=classic;html=1;rounded=0;entryX=0;entryY=0.5;entryDx=0;entryDy=0;endFill=1;" edge="1" parent="1">
          <mxGeometry width="50" height="50" relative="1" as="geometry">
            <mxPoint x="518" y="399.5" as="sourcePoint" />
            <mxPoint x="587" y="399.5" as="targetPoint" />
          </mxGeometry>
        </mxCell>
        <mxCell id="gLyy-V3eMxuYlXdmKleB-71" value="" style="endArrow=none;html=1;rounded=0;" edge="1" parent="1">
          <mxGeometry width="50" height="50" relative="1" as="geometry">
            <mxPoint x="518" y="443" as="sourcePoint" />
            <mxPoint x="518" y="399" as="targetPoint" />
          </mxGeometry>
        </mxCell>
        <mxCell id="gLyy-V3eMxuYlXdmKleB-73" value="" style="endArrow=none;html=1;rounded=0;" edge="1" parent="1">
          <mxGeometry width="50" height="50" relative="1" as="geometry">
            <mxPoint x="520" y="529" as="sourcePoint" />
            <mxPoint x="520" y="472" as="targetPoint" />
          </mxGeometry>
        </mxCell>
        <mxCell id="gLyy-V3eMxuYlXdmKleB-75" value="" style="endArrow=none;html=1;rounded=0;exitX=1;exitY=0.75;exitDx=0;exitDy=0;exitPerimeter=0;startArrow=classic;startFill=1;" edge="1" parent="1" source="gLyy-V3eMxuYlXdmKleB-4">
          <mxGeometry width="50" height="50" relative="1" as="geometry">
            <mxPoint x="469" y="480.03999999999996" as="sourcePoint" />
            <mxPoint x="520" y="471" as="targetPoint" />
          </mxGeometry>
        </mxCell>
        <mxCell id="gLyy-V3eMxuYlXdmKleB-76" value="" style="endArrow=none;html=1;rounded=0;exitX=1;exitY=0.25;exitDx=0;exitDy=0;exitPerimeter=0;" edge="1" parent="1" source="gLyy-V3eMxuYlXdmKleB-4">
          <mxGeometry width="50" height="50" relative="1" as="geometry">
            <mxPoint x="467.75" y="440.03999999999996" as="sourcePoint" />
            <mxPoint x="519" y="444" as="targetPoint" />
          </mxGeometry>
        </mxCell>
        <mxCell id="gLyy-V3eMxuYlXdmKleB-78" value="" style="endArrow=classic;html=1;rounded=0;exitX=0;exitY=0.75;exitDx=0;exitDy=0;exitPerimeter=0;" edge="1" parent="1">
          <mxGeometry width="50" height="50" relative="1" as="geometry">
            <mxPoint x="258" y="467.25" as="sourcePoint" />
            <mxPoint x="99" y="468" as="targetPoint" />
          </mxGeometry>
        </mxCell>
        <mxCell id="gLyy-V3eMxuYlXdmKleB-79" value="" style="endArrow=classic;html=1;rounded=0;entryX=1;entryY=0.75;entryDx=0;entryDy=0;entryPerimeter=0;exitX=0;exitY=0.75;exitDx=0;exitDy=0;exitPerimeter=0;" edge="1" parent="1">
          <mxGeometry width="50" height="50" relative="1" as="geometry">
            <mxPoint x="366" y="471.25" as="sourcePoint" />
            <mxPoint x="313" y="471.25" as="targetPoint" />
          </mxGeometry>
        </mxCell>
        <mxCell id="gLyy-V3eMxuYlXdmKleB-80" value="Prompt" style="text;html=1;align=center;verticalAlign=middle;whiteSpace=wrap;rounded=0;" vertex="1" parent="1">
          <mxGeometry x="138" y="414" width="60" height="30" as="geometry" />
        </mxCell>
        <mxCell id="gLyy-V3eMxuYlXdmKleB-81" value="Response" style="text;html=1;align=center;verticalAlign=middle;whiteSpace=wrap;rounded=0;" vertex="1" parent="1">
          <mxGeometry x="138" y="468" width="60" height="30" as="geometry" />
        </mxCell>
        <mxCell id="gLyy-V3eMxuYlXdmKleB-82" value="&lt;span style=&quot;font-size: 10px;&quot;&gt;Document&lt;/span&gt;" style="text;html=1;align=center;verticalAlign=middle;whiteSpace=wrap;rounded=0;" vertex="1" parent="1">
          <mxGeometry x="100" y="291" width="116" height="30" as="geometry" />
        </mxCell>
        <mxCell id="gLyy-V3eMxuYlXdmKleB-84" value="&lt;font style=&quot;font-size: 14px;&quot;&gt;&lt;b&gt;Logical Diagram&lt;/b&gt;&lt;/font&gt;" style="text;html=1;align=center;verticalAlign=middle;whiteSpace=wrap;rounded=0;" vertex="1" parent="1">
          <mxGeometry x="405.75" y="136" width="120.25" height="30" as="geometry" />
        </mxCell>
      </root>
    </mxGraphModel>
  </diagram>
</mxfile>
